<svg width="30" height="30" viewBox="0 0 30 30" fill="none" xmlns="http://www.w3.org/2000/svg">
<g clip-path="url(#clip0_1_271)">
<path d="M14.7477 16.6972C17.5933 16.6972 19.9002 14.3359 19.9002 11.423C19.9002 8.51005 17.5933 6.14868 14.7477 6.14868C11.9021 6.14868 9.59521 8.51005 9.59521 11.423C9.59521 14.3359 11.9021 16.6972 14.7477 16.6972Z" fill="#FD8D1E"/>
<path d="M24.6896 9.29326C24.3399 9.02714 24.2267 8.58334 24.3986 8.16784C24.8909 7.00036 24.6862 6.19257 24.4145 5.6955C24.0145 5.01389 23.3033 4.61814 22.3238 4.52028C21.8735 4.46361 21.5464 4.12881 21.4936 3.68928C21.3954 2.66514 21.0088 1.93723 20.3187 1.51312C19.8583 1.2487 19.0658 1.03926 17.9345 1.54143C17.5219 1.71741 17.0874 1.60407 16.8233 1.23927C15.5989 -0.410641 13.9015 -0.417498 12.6671 1.24612C12.408 1.60407 11.9743 1.71999 11.5676 1.544C10.4288 1.04096 9.63798 1.2487 9.15238 1.52771C8.48651 1.93717 8.0999 2.66514 8.00429 3.66784C7.94893 4.12881 7.62187 4.46361 7.19249 4.5177C6.19199 4.61814 5.48089 5.01389 5.06658 5.72035C4.80912 6.19251 4.60451 7.0003 5.09423 8.16175C5.26867 8.58322 5.15543 9.02708 4.79905 9.29836C3.99314 9.925 3.58386 10.6393 3.58386 11.423C3.58386 12.2068 3.99308 12.921 4.80575 13.5528C5.15543 13.8189 5.26867 14.2627 5.09675 14.6782C4.60446 15.8457 4.80912 16.6535 5.08083 17.1506C5.48084 17.8322 6.19199 18.2279 7.17154 18.3258C7.62187 18.3825 7.94893 18.7173 8.00178 19.1568C8.0999 20.1809 8.48651 20.9088 9.17666 21.333C9.63706 21.5974 10.4271 21.8059 11.5617 21.3046C11.9785 21.1261 12.4078 21.2437 12.672 21.6068C13.2842 22.4318 13.982 22.8507 14.7476 22.8507C15.5133 22.8507 16.2111 22.4318 16.8283 21.6C17.0882 21.242 17.5201 21.1287 17.9277 21.3021C19.0682 21.806 19.8582 21.5965 20.343 21.3184C21.0088 20.9089 21.3954 20.1809 21.491 19.1782C21.5464 18.7173 21.8735 18.3825 22.3028 18.3284C23.3033 18.2279 24.0144 17.8322 24.4288 17.1257C24.6862 16.6536 24.8908 15.8458 24.4011 14.6843C24.2267 14.2629 24.3399 13.819 24.6963 13.5477C25.5022 12.9211 25.9115 12.2068 25.9115 11.4231C25.9115 10.6393 25.5022 9.92506 24.6896 9.29326ZM14.7478 18.4554C10.9597 18.4554 7.87777 15.3006 7.87777 11.423C7.87777 7.54542 10.9597 4.39065 14.7478 4.39065C18.5358 4.39065 21.6177 7.54542 21.6177 11.423C21.6177 15.3006 18.5358 18.4554 14.7478 18.4554Z" fill="#FD8D1E"/>
<path d="M11.6826 23.2503C11.2029 23.4056 10.7224 23.4846 10.2536 23.4846C9.57092 23.4855 8.90756 23.3112 8.3365 22.9833C8.04624 22.8053 7.74465 22.5464 7.45742 22.2344L5.4617 25.0941C5.27466 25.362 5.24953 25.7139 5.39626 26.0075C5.54385 26.3003 5.83817 26.484 6.16026 26.484H9.06443L10.5446 29.5143C10.6905 29.8122 10.9873 30.0002 11.3127 30.0002C11.6382 30.0002 11.935 29.8122 12.0809 29.5143L14.4338 24.6973C13.6454 24.6336 12.6424 24.3154 11.6826 23.2503Z" fill="#FD8D1E"/>
<path d="M22.0443 22.2435C21.7735 22.5358 21.4925 22.78 21.2277 22.9431C20.5887 23.3105 19.9337 23.483 19.236 23.483C18.7722 23.483 18.2951 23.4049 17.8112 23.2496C16.8459 24.3157 15.8466 24.6338 15.0616 24.6975L17.4145 29.5145C17.5604 29.8123 17.8573 30.0003 18.1827 30.0003C18.5081 30.0003 18.8049 29.8123 18.9509 29.5145L20.431 26.4842H23.3352C23.6571 26.4842 23.9516 26.3004 24.0992 26.0077C24.2459 25.7141 24.2208 25.3621 24.0337 25.0943L22.0443 22.2435Z" fill="#FD8D1E"/>
</g>
<defs>
<clipPath id="clip0_1_271">
<rect width="29.3073" height="30" fill="white" transform="translate(0.0941162)"/>
</clipPath>
</defs>
</svg>
