<svg width="25" height="24" viewBox="0 0 25 24" fill="none" xmlns="http://www.w3.org/2000/svg">
<path d="M5.12933 19.071C7.02433 20.966 9.53433 22.009 12.2003 22.009C14.8663 22.009 17.3773 20.966 19.2713 19.071C23.1703 15.172 23.1703 8.82799 19.2713 4.92799C17.3773 3.03399 14.8653 1.98999 12.2003 1.98999C9.53533 1.98999 7.02333 3.03399 5.12933 4.92899C1.23033 8.82699 1.23033 15.172 5.12933 19.071ZM12.5093 4.00599C14.1794 4.06611 15.7876 4.65351 17.1033 5.68399L12.2003 10.586L10.7403 9.12599C11.9013 7.64699 12.5323 5.81799 12.5093 4.00599ZM9.31033 7.69599L7.29833 5.68399C8.24289 4.9436 9.34321 4.42729 10.5163 4.17399C10.5013 5.40999 10.0713 6.65099 9.31033 7.69599ZM7.88633 9.09999C6.86767 9.79592 5.661 10.1647 4.42733 10.157C4.68717 9.04446 5.18454 8.00128 5.88533 7.09899L7.88633 9.09999ZM4.21133 12.146C4.28833 12.148 4.36533 12.16 4.44233 12.16C6.20202 12.1656 7.91508 11.5945 9.31933 10.534L10.7863 12L5.88533 16.901C4.82769 15.5388 4.24031 13.8703 4.21133 12.146ZM16.5053 14.891C17.5473 14.133 18.7853 13.703 20.0133 13.685C19.7632 14.8564 19.2514 15.9562 18.5163 16.902L16.5053 14.891ZM17.1023 18.316C16.2006 19.0209 15.1571 19.5223 14.0433 19.786C14.032 18.5478 14.401 17.3359 15.1003 16.314L17.1023 18.316ZM12.0583 20.002C10.3299 19.9745 8.65787 19.3824 7.29733 18.316L12.2003 13.414L13.6633 14.877C12.5603 16.321 12.0043 18.143 12.0583 20.002ZM20.1823 11.692C18.3753 11.674 16.5493 12.302 15.0743 13.46L13.6143 12L18.5153 7.09899C19.5383 8.41763 20.1214 10.0242 20.1823 11.692Z" fill="white"/>
</svg>
