<svg width="30" height="30" viewBox="0 0 30 30" fill="none" xmlns="http://www.w3.org/2000/svg">
<g clip-path="url(#clip0_1_265)">
<path d="M20.9945 15.8538L14.9843 14.096C14.83 14.0513 14.6657 14.0513 14.5113 14.096L8.50106 15.8538C8.1338 15.962 7.87891 16.307 7.87891 16.6992V20.9646C7.87891 25.1257 10.6073 28.8276 14.513 29.9666C14.5902 29.9889 14.669 30 14.7478 30C14.8266 30 14.9054 29.9889 14.9826 29.9666C18.8883 28.8276 21.6167 25.1257 21.6167 20.9646V16.6992C21.6167 16.307 21.3618 15.962 20.9945 15.8538V15.8538ZM17.9307 20.9534L14.4962 24.4691C14.3285 24.6408 14.1088 24.7266 13.8892 24.7266C13.6696 24.7266 13.4498 24.6408 13.2822 24.4691L11.5649 22.7113C11.2296 22.368 11.2296 21.8117 11.5649 21.4684C11.9003 21.1251 12.4437 21.1251 12.7791 21.4684L13.8892 22.6049L16.7166 19.7106C17.052 19.3673 17.5954 19.3673 17.9307 19.7106C18.2661 20.0539 18.2661 20.6101 17.9307 20.9534V20.9534Z" fill="#FD8D1E"/>
<path d="M23.3339 5.27344C22.9096 5.27344 22.492 5.31809 22.0812 5.4082C21.0448 2.22475 18.0967 0 14.7478 0C11.3988 0 8.4507 2.22475 7.41435 5.4082C7.00348 5.31809 6.58591 5.27344 6.16164 5.27344C2.84791 5.27344 0.0941162 8.03373 0.0941162 11.4258C0.0941162 14.8178 2.84791 17.5781 6.16164 17.5781V16.6992C6.16164 15.5302 6.92804 14.4882 8.02643 14.1646L14.0401 12.4059C14.2732 12.3381 14.5096 12.3047 14.7478 12.3047C14.9859 12.3047 15.2223 12.3381 15.4504 12.4042L21.4657 14.1637C22.5675 14.4882 23.3339 15.5302 23.3339 16.6992V17.5781C26.6476 17.5781 29.4014 14.8178 29.4014 11.4258C29.4014 8.03373 26.6476 5.27344 23.3339 5.27344V5.27344Z" fill="#FD8D1E"/>
</g>
<defs>
<clipPath id="clip0_1_265">
<rect width="29.3073" height="30" fill="white" transform="translate(0.0941162)"/>
</clipPath>
</defs>
</svg>
