<svg width="113" height="15" viewBox="0 0 113 15" fill="none" xmlns="http://www.w3.org/2000/svg">
<path d="M7.68278 13.2182L2.7388 3.76313V14.2349H0V0.00244141H3.7992L7.72155 7.64864L11.6439 0.00244141H15.4431V14.2349H12.645V3.78355L7.6805 13.2182H7.68278Z" fill="black"/>
<path d="M20.736 14.2347L26.6195 0.00219727H30.0516L35.853 14.2347H32.6444L31.194 10.4922H25.29L23.8191 14.2347H20.7337H20.736ZM26.2113 8.13409H30.2978L28.2751 2.88683L26.2113 8.13409Z" fill="black"/>
<path d="M40.6966 14.2348V12.2217L48.5823 2.56235H40.7582V0H52.4454V2.01311L44.5596 11.6724H52.5275V14.2348H40.6989H40.6966Z" fill="black"/>
<path d="M70.6888 8.07288C70.6888 9.03518 70.5383 9.9135 70.2396 10.7056C69.9409 11.4977 69.5144 12.1695 68.9626 12.7187C68.4107 13.2679 67.7425 13.6923 66.9603 13.9897C66.1759 14.287 65.3093 14.4368 64.3561 14.4368C63.4029 14.4368 62.5135 14.287 61.7313 13.9897C60.9468 13.6923 60.2832 13.2679 59.7382 12.7187C59.1932 12.1695 58.7713 11.5022 58.4726 10.7169C58.1715 9.93166 58.0233 9.0488 58.0233 8.07288V0H60.9856V8.07288C60.9856 9.17136 61.2957 10.0519 61.916 10.7169C62.5363 11.3819 63.3572 11.7133 64.3789 11.7133C65.4005 11.7133 66.2146 11.3819 66.8212 10.7169C67.4278 10.0519 67.7311 9.17136 67.7311 8.07288V0H70.6934V8.07288H70.6888Z" fill="black"/>
<path d="M84.8276 13.2179L79.8836 3.76288V14.2347H77.1448V0.00219727H80.944L84.8663 7.64839L88.7887 0.00219727H92.5879V14.2347H89.7898V3.78331L84.8253 13.2179H84.8276Z" fill="black"/>
<path d="M97.883 14.2347L103.767 0.00219727H107.199L113 14.2347H109.791L108.341 10.4922H102.437L100.966 14.2347H97.8807H97.883ZM103.358 8.13409H107.445L105.422 2.88683L103.358 8.13409Z" fill="black"/>
</svg>
