<svg width="42" height="30" viewBox="0 0 42 30" fill="none" xmlns="http://www.w3.org/2000/svg">
<path d="M32.7959 25.5169H37.0686C37.3882 26.3915 37.9009 27.0208 38.6064 27.4049C39.3119 27.7889 39.971 27.9809 40.5836 27.9809H40.9033V28.3775H30.92V27.9809H31.2792C31.7847 27.9809 32.2311 27.7679 32.617 27.3446C33.0029 26.9199 33.0634 26.3116 32.7973 25.5169H32.7959ZM38.0276 28.1407H33.6746L26.6065 6.32107L27.8444 0.00140157L38.0276 28.1393V28.1407ZM19.4187 29.0153L18.9793 25.5576L26.6065 4.41354C26.8994 3.4857 27.1121 2.69101 27.2459 2.02947C27.3796 1.36653 27.4599 0.690973 27.4853 0.00280314H27.8444L28.7231 3.937L19.7778 29.0153H19.4187ZM19.4187 28.976L10.9127 6.91814L12.1506 0.00140157L21.2551 23.4496L19.4187 28.9746V28.976ZM3.48548 28.1421L10.9521 4.41214C11.2183 3.45767 11.4183 2.64336 11.5507 1.9678C11.6844 1.29225 11.7506 0.636312 11.7506 0H12.1506L12.8294 3.9342L5.88095 28.1379H3.48548V28.1421ZM6.64001 25.5183C6.42736 26.313 6.49355 26.9227 6.83998 27.346C7.18642 27.7693 7.6258 27.9823 8.15813 27.9823H8.51724V28.3789H0.490082V27.9823H0.80976C1.42236 27.9823 2.08706 27.7903 2.80669 27.4063C3.52491 27.0222 4.03189 26.3929 4.3234 25.5183H6.64001Z" fill="black"/>
<path d="M0.399949 20.9255V20.4111C0.399949 19.6949 0.608374 19.0909 1.01959 18.6017C1.43362 18.1126 1.94764 17.8519 2.55742 17.8266V17.7061H0.0014075V20.9241H0.399949V20.9255ZM40.3541 18.6017C40.7808 19.0909 40.992 19.6795 40.992 20.3705V20.9255H41.3905V17.7075H38.8359V17.828C39.4218 17.8533 39.9288 18.1126 40.3555 18.6031L40.3541 18.6017ZM41.3905 17.8266V15.4874H0.0014075V17.8266H41.3905ZM2.55601 15.6052V15.4874H0V15.6052H2.55601ZM41.3905 15.6052V15.4874H38.8359V15.6052H41.3905Z" fill="black"/>
<path d="M2.55757 13.5252V13.4075H0.0015564V13.5252H2.55757ZM41.3921 13.5252V13.4075H38.8375V13.5252H41.3921ZM41.3921 13.5252V11.186H0.0015564V13.5252H41.3907H41.3921ZM2.55757 11.3079V11.1874C1.94779 11.1621 1.43377 10.9057 1.01974 10.4123C0.608523 9.92315 0.400098 9.31908 0.400098 8.60288V8.12634L0.0015564 8.0885V11.3065H2.55757V11.3079ZM41.3921 11.3079V8.0899L40.9936 8.12774V8.60428C40.9936 9.32048 40.7823 9.92455 40.3556 10.4137C39.9289 10.9057 39.4219 11.1635 38.8361 11.1888V11.3093H41.3907L41.3921 11.3079Z" fill="black"/>
</svg>
