<svg width="25" height="24" viewBox="0 0 25 24" fill="none" xmlns="http://www.w3.org/2000/svg">
<path d="M2.55406 12.573C1.87006 14.472 1.77906 16.447 2.99206 17.673L3.22606 17.91C4.23027 18.9267 5.23795 19.9401 6.24906 20.95C7.52906 22.23 9.55406 22.25 11.5381 21.61C13.5651 20.955 15.7881 19.548 17.7641 17.572C19.7401 15.597 21.1461 13.372 21.8011 11.346C22.4411 9.36196 22.4211 7.33796 21.1411 6.05796C20.1748 5.08991 19.2111 4.11924 18.2501 3.14596L17.8871 2.77896L17.8851 2.78196C16.6601 1.56696 14.6841 1.65796 12.7851 2.34196C10.8201 3.04996 8.63606 4.48496 6.66606 6.45496C4.69606 8.42496 3.26206 10.608 2.55406 12.573ZM17.6901 6.87096V6.87396L17.6891 6.87796L17.6871 6.88996L17.6801 6.92696L17.6541 7.05396C17.6311 7.16096 17.5961 7.31396 17.5441 7.50396C17.4391 7.88396 17.2681 8.41696 16.9991 9.04496C16.277 10.7207 15.2418 12.2433 13.9491 13.531C12.2115 15.2551 10.0928 16.5466 7.76406 17.301C7.56586 17.3638 7.36576 17.4205 7.16406 17.471L7.12606 17.48L7.11506 17.482L7.11106 17.483H7.10806C7.10806 17.483 6.35906 17.567 6.21706 16.909C6.17515 16.7148 6.21193 16.512 6.31935 16.345C6.42677 16.178 6.59605 16.0604 6.79006 16.018H6.79106L6.79406 16.017L6.81606 16.012C6.98345 15.9704 7.14953 15.9237 7.31406 15.872C9.41268 15.1901 11.3221 14.0256 12.8891 12.472C14.0462 11.3191 14.9728 9.95607 15.6191 8.45596C15.8591 7.89596 16.0081 7.42896 16.0971 7.10596C16.1389 6.95493 16.1756 6.80251 16.2071 6.64896C16.2801 6.24396 16.6531 5.94196 17.0711 6.00996C17.1683 6.02575 17.2615 6.06056 17.3453 6.11238C17.4291 6.16421 17.5019 6.23204 17.5595 6.31199C17.617 6.39195 17.6583 6.48247 17.6809 6.57838C17.7035 6.67429 17.7069 6.77371 17.6911 6.87096H17.6901Z" fill="white"/>
</svg>
