<svg width="42" height="30" viewBox="0 0 42 30" fill="none" xmlns="http://www.w3.org/2000/svg">
<path d="M32.7959 25.5169H37.0686C37.3883 26.3915 37.9009 27.0208 38.6064 27.4049C39.312 27.7889 39.9711 27.9809 40.5836 27.9809H40.9033V28.3775H30.9201V27.9809H31.2792C31.7848 27.9809 32.2312 27.7679 32.617 27.3446C33.0029 26.9199 33.0635 26.3116 32.7973 25.5169H32.7959ZM38.0276 28.1407H33.6747L26.6065 6.32107L27.8444 0.00140157L38.0276 28.1393V28.1407ZM19.4187 29.0153L18.9793 25.5576L26.6065 4.41354C26.8995 3.4857 27.1121 2.69101 27.2459 2.02947C27.3797 1.36653 27.46 0.690973 27.4853 0.00280314H27.8444L28.7232 3.937L19.7778 29.0153H19.4187ZM19.4187 28.976L10.9127 6.91814L12.1506 0.00140157L21.2551 23.4496L19.4187 28.9746V28.976ZM3.48551 28.1421L10.9522 4.41214C11.2183 3.45767 11.4183 2.64336 11.5507 1.9678C11.6845 1.29225 11.7507 0.636312 11.7507 0H12.1506L12.8294 3.9342L5.88098 28.1379H3.48551V28.1421ZM6.64004 25.5183C6.42739 26.313 6.49358 26.9227 6.84002 27.346C7.18645 27.7693 7.62583 27.9823 8.15816 27.9823H8.51727V28.3789H0.490112V27.9823H0.809791C1.42239 27.9823 2.08709 27.7903 2.80672 27.4063C3.52494 27.0222 4.03192 26.3929 4.32343 25.5183H6.64004Z" fill="white"/>
<path d="M0.399949 20.9254V20.411C0.399949 19.6948 0.608374 19.0907 1.01959 18.6016C1.43362 18.1124 1.94764 17.8518 2.55742 17.8265V17.706H0.0014075V20.924H0.399949V20.9254ZM40.3541 18.6016C40.7808 19.0907 40.992 19.6794 40.992 20.3704V20.9254H41.3905V17.7074H38.8359V17.8279C39.4218 17.8532 39.9288 18.1124 40.3555 18.603L40.3541 18.6016ZM41.3905 17.8265V15.4873H0.0014075V17.8265H41.3905ZM2.55601 15.605V15.4873H0V15.605H2.55601ZM41.3905 15.605V15.4873H38.8359V15.605H41.3905Z" fill="white"/>
<path d="M2.5576 13.5251V13.4073H0.00158691V13.5251H2.5576ZM41.3921 13.5251V13.4073H38.8375V13.5251H41.3921ZM41.3921 13.5251V11.1858H0.00158691V13.5251H41.3907H41.3921ZM2.5576 11.3078V11.1872C1.94782 11.162 1.4338 10.9055 1.01977 10.4122C0.608553 9.92303 0.400128 9.31896 0.400128 8.60275V8.12622L0.00158691 8.08838V11.3064H2.5576V11.3078ZM41.3921 11.3078V8.08978L40.9936 8.12762V8.60416C40.9936 9.32036 40.7824 9.92443 40.3557 10.4136C39.9289 10.9055 39.422 11.1634 38.8361 11.1886V11.3092H41.3907L41.3921 11.3078Z" fill="white"/>
</svg>
