<svg width="24" height="24" viewBox="0 0 24 24" fill="none" xmlns="http://www.w3.org/2000/svg">
<path d="M1.5 12C1.5 6.201 6.201 1.5 12 1.5C17.799 1.5 22.5 6.201 22.5 12C22.5 17.799 17.799 22.5 12 22.5C6.201 22.5 1.5 17.799 1.5 12ZM11.4832 3.015C11.4923 3.14113 11.4651 3.26722 11.4049 3.37843C11.3448 3.48964 11.254 3.58135 11.1435 3.64275L8.33625 5.202C8.27891 5.23387 8.21764 5.25807 8.154 5.274L7.86375 5.34675L8.02575 6.48L10.647 7.005C10.7934 7.03371 10.9277 7.10584 11.0325 7.212L14.25 5.6025V4.21275C14.25 4.03397 14.3138 3.86107 14.43 3.72521C14.5462 3.58935 14.7071 3.49946 14.8837 3.47175C13.7901 3.10236 12.6356 2.94703 11.4832 3.01425V3.015ZM5.83575 5.44275C4.37465 6.8133 3.41372 8.63301 3.10575 10.6125L5.481 9.42525C5.49842 9.38443 5.51951 9.34527 5.544 9.30825L7.2225 6.79275C7.32278 6.64224 7.47407 6.53303 7.6485 6.48525L7.4985 5.43825L6.576 5.6685C6.44389 5.70242 6.305 5.6993 6.17455 5.65948C6.0441 5.61965 5.92714 5.54467 5.8365 5.44275H5.83575ZM3.04875 11.0602C3.0165 11.3678 3 11.6805 3 11.9963V12.0037C3 13.0267 3.17175 14.0107 3.48675 14.9272L5.51925 17.1863C5.58593 17.106 5.66872 17.0406 5.76225 16.9943L7.11075 16.3193C7.18067 16.2846 7.25557 16.261 7.33275 16.2495L7.63875 12.5812C7.44576 12.551 7.2722 12.4466 7.155 12.2902L5.56875 10.1745C5.50071 10.0841 5.45404 9.9795 5.43225 9.8685L3.04875 11.061V11.0602ZM5.3625 17.5725L3.921 15.9705C4.35078 16.8433 4.91886 17.6408 5.60325 18.3323C5.52026 18.1617 5.44933 17.9855 5.391 17.805C5.36684 17.73 5.35717 17.6511 5.3625 17.5725ZM12 21C13.9245 21 15.708 20.3955 17.1713 19.3665L17.3558 17.8942C17.2695 17.9056 17.1819 17.9018 17.097 17.883L14.8373 17.3805C14.6807 17.3457 14.5396 17.2616 14.4345 17.1405L10.812 18.813C10.8109 18.823 10.8097 18.833 10.8083 18.843L10.6125 20.2155C10.5967 20.3235 10.5585 20.4255 10.503 20.5155C10.8322 20.7 11.1772 20.856 11.523 20.988C11.6805 20.9955 11.8395 21 12 21ZM17.7562 17.7135L17.5882 19.056C19.1934 17.7853 20.3175 16.0054 20.775 14.01L19.6777 14.5582C19.6625 14.5975 19.6439 14.6354 19.6222 14.6715L17.9032 17.5365C17.8636 17.6027 17.8141 17.6624 17.7562 17.7135ZM19.7108 14.1225L20.868 13.5443C20.955 13.0417 21 12.5265 21 12C21 10.0297 20.367 8.20725 19.293 6.72525C19.2742 6.89439 19.1982 7.05205 19.0778 7.17225L18.414 7.836C18.3409 7.9091 18.2534 7.96629 18.1571 8.00398C18.0609 8.04166 17.9578 8.05903 17.8545 8.055L18.1448 11.9137C18.2216 11.9646 18.2885 12.0292 18.342 12.1042L19.5892 13.8502C19.6493 13.9327 19.6898 14.0265 19.7108 14.1225ZM8.01825 12.543L7.70625 16.287C7.76118 16.3073 7.81353 16.334 7.86225 16.3665L10.482 18.1125C10.5988 18.1907 10.6913 18.3001 10.749 18.4282L14.2665 16.8053C14.2555 16.7535 14.2499 16.7007 14.25 16.6478V13.6327C14.2499 13.5246 14.2732 13.4176 14.3182 13.3193L10.9403 11.349C10.8902 11.3856 10.8358 11.4158 10.7782 11.439L8.03325 12.5363L8.01825 12.543ZM11.1818 11.0557L14.559 13.026C14.6093 12.9894 14.664 12.9591 14.7218 12.936L17.4532 11.844C17.5506 11.8049 17.6551 11.7868 17.76 11.7907L17.4697 7.932L14.6138 6.21825C14.5103 6.15612 14.4233 6.06993 14.3602 5.967L11.2222 7.536C11.2403 7.60125 11.25 7.6695 11.25 7.74V10.7423C11.2501 10.8504 11.2268 10.9574 11.1818 11.0557Z" fill="white"/>
</svg>
