<svg width="30" height="30" viewBox="0 0 30 30" fill="none" xmlns="http://www.w3.org/2000/svg">
<g clip-path="url(#clip0_1_249)">
<path d="M12.2298 5.98844C12.4196 5.7942 12.4196 5.48404 12.2299 5.28977L10.8219 3.8478C10.5087 3.52703 9.96414 3.74878 9.96414 4.19712V4.76684C7.41773 4.85555 5.03748 5.91059 3.22908 7.76175C1.53672 9.4941 0.524819 11.7389 0.330889 14.1561C0.292966 14.6288 0.681044 15.014 1.15524 15.014C1.62944 15.014 2.00938 14.6285 2.05579 14.1566C2.46557 9.98985 5.82896 6.70227 9.96414 6.52589V7.08071C9.96414 7.52901 10.5086 7.75078 10.8218 7.43006L12.2298 5.98844Z" fill="#FD8D1E"/>
<path d="M28.7453 15.0139C28.2712 15.0139 27.8912 15.3994 27.8448 15.8713C27.435 20.038 24.0716 23.3255 19.9364 23.5019V22.9471C19.9364 22.4988 19.392 22.277 19.0787 22.5977L17.6708 24.0394C17.481 24.2336 17.481 24.5438 17.6707 24.738L19.0787 26.18C19.3919 26.5008 19.9364 26.279 19.9364 25.8307V25.261C22.4829 25.1723 24.8631 24.1172 26.6715 22.2661C28.3639 20.5338 29.3758 18.2889 29.5697 15.8717C29.6076 15.399 29.2195 15.0139 28.7453 15.0139Z" fill="#FD8D1E"/>
<path d="M8.2482 18.1965C8.13777 18.2152 8.02499 18.2152 7.91455 18.1965L1.46345 17.105C0.853192 17.0018 0.296631 17.4721 0.296631 18.091V27.8052C0.296631 28.2931 0.648735 28.7098 1.12981 28.7912L7.91456 29.9391C8.02499 29.9578 8.13777 29.9578 8.2482 29.9391L15.0329 28.7912C15.514 28.7098 15.8661 28.2931 15.8661 27.8052V18.091C15.8661 17.4721 15.3096 17.0018 14.6993 17.105L8.2482 18.1965ZM8.93999 27.3148C8.93999 27.7338 8.63766 28.0916 8.2246 28.1614C8.12979 28.1775 8.03296 28.1775 7.93816 28.1614C7.5251 28.0916 7.22277 27.7338 7.22277 27.3148V20.623C7.22277 20.2245 7.58109 19.9217 7.97399 19.9882C8.04507 20.0002 8.11768 20.0002 8.18877 19.9882C8.58167 19.9217 8.93999 20.2245 8.93999 20.623V27.3148Z" fill="#FD8D1E"/>
<path d="M21.986 1.3215C21.8756 1.34018 21.7628 1.34018 21.6523 1.3215L15.2012 0.230012C14.591 0.126759 14.0344 0.597064 14.0344 1.216V10.9302C14.0344 11.4181 14.3865 11.8348 14.8676 11.9162L21.6523 13.0641C21.7628 13.0828 21.8756 13.0828 21.986 13.0641L28.7707 11.9162C29.2518 11.8348 29.6039 11.4181 29.6039 10.9302V1.216C29.6039 0.597065 29.0474 0.126759 28.4371 0.230012L21.986 1.3215ZM22.6778 10.4398C22.6778 10.8588 22.3755 11.2166 21.9624 11.2864C21.8676 11.3025 21.7708 11.3025 21.676 11.2864C21.2629 11.2166 20.9606 10.8588 20.9606 10.4398V3.74802C20.9606 3.34954 21.3189 3.04675 21.7118 3.11321C21.7829 3.12524 21.8555 3.12524 21.9266 3.11321C22.3195 3.04675 22.6778 3.34954 22.6778 3.74802V10.4398Z" fill="#FD8D1E"/>
</g>
<defs>
<clipPath id="clip0_1_249">
<rect width="29.3073" height="30" fill="white" transform="translate(0.296631)"/>
</clipPath>
</defs>
</svg>
