<svg width="30" height="30" viewBox="0 0 30 30" fill="none" xmlns="http://www.w3.org/2000/svg">
<g clip-path="url(#clip0_1_244)">
<path d="M14.7802 12.4125H14.7924L20.776 10.325C20.8004 10.2125 20.8004 10.1 20.8004 10C20.8004 9.8875 20.7882 9.7875 20.7515 9.6875C20.6538 9.4 20.4707 9.0875 20.2142 8.8625V6.125C20.2142 4.1 19.506 3.3 18.7733 2.8375C18.3947 1.6625 16.8195 0 13.73 0C10.0666 0 7.30682 3.7125 7.30682 6.125C7.30682 7.125 7.27019 7.9125 7.23355 8.5125C7.23355 8.6375 7.22134 8.75 7.22134 8.85C6.95269 9.1 6.76952 9.4375 6.68404 9.7625C6.67183 9.8375 6.65962 9.9125 6.65962 10C6.65962 10.975 7.19692 12.3875 7.27019 12.55C7.34346 12.7625 7.5022 12.9375 7.7098 13.0375C7.72201 13.0875 7.73422 13.1625 7.73422 13.3125C7.73422 14.6375 8.84545 15.8875 9.45602 16.4875C9.39497 17.8625 9.01641 18.8125 8.47911 19.05L3.69226 20.675C2.33679 21.1375 1.32325 22.2625 0.969121 23.6875L0.321919 26.3375C0.260862 26.6125 0.321919 26.9125 0.492878 27.1375C0.663837 27.3625 0.932487 27.5 1.21335 27.5H14.9023C14.536 27.025 14.194 26.5 13.8765 25.9375C13.0706 24.475 12.5089 22.7 12.5089 20.6875V15.675C12.5089 14.2 13.4247 12.9 14.7802 12.4125Z" fill="#FD8D1E"/>
<path d="M28.9824 14.7825L22.5714 12.55C22.3809 12.4825 22.1733 12.4825 21.9828 12.55L15.5719 14.7825C15.1994 14.9113 14.9503 15.2675 14.9503 15.67V20.6925C14.9503 26.8225 21.6348 29.8025 21.9193 29.9263C22.1489 30.025 22.4054 30.025 22.6349 29.9263C22.9195 29.8013 29.604 26.8225 29.604 20.6925V15.67C29.604 15.2675 29.3548 14.9113 28.9824 14.7825ZM26.2898 19.5225L22.9317 23.8975C22.5043 24.4563 21.7032 24.5375 21.1769 24.075L19.0399 22.2C18.527 21.7513 18.4672 20.9613 18.908 20.4375C19.3464 19.9138 20.1182 19.8538 20.6286 20.3025L21.7985 21.3288L24.3689 17.98C24.7854 17.4375 25.5522 17.3413 26.0834 17.77C26.6146 18.1938 26.7074 18.98 26.2898 19.5225Z" fill="#FD8D1E"/>
</g>
<defs>
<clipPath id="clip0_1_244">
<rect width="29.3073" height="30" fill="white" transform="translate(0.296631)"/>
</clipPath>
</defs>
</svg>
